<?xml version="1.0" standalone="no"?>
<!DOCTYPE svg PUBLIC "-//W3C//DTD SVG 20010904//EN"
 "http://www.w3.org/TR/2001/REC-SVG-20010904/DTD/svg10.dtd">
<svg version="1.0" xmlns="http://www.w3.org/2000/svg"
 width="4000.000000pt" height="4000.000000pt" viewBox="0 0 4000.000000 4000.000000"
 preserveAspectRatio="xMidYMid meet">
<metadata>
Created by potrace 1.14, written by Peter Selinger 2001-2017
</metadata>
<g transform="translate(0.000000,4000.000000) scale(0.100000,-0.100000)"
fill="#000000" stroke="none">
<path d="M28060 38624 c-977 -87 -1721 -101 -2571 -49 -540 33 -742 15 -986
-86 -96 -41 -262 -152 -343 -231 -36 -34 -90 -83 -120 -108 -30 -25 -129 -112
-220 -194 -198 -179 -289 -254 -660 -543 -157 -122 -334 -263 -395 -313 -436
-363 -661 -633 -696 -839 -15 -80 0 -178 40 -265 15 -34 34 -93 41 -132 20
-107 72 -273 185 -584 112 -309 167 -478 215 -665 25 -96 103 -384 127 -467 7
-23 0 -23 -115 6 -520 130 -1214 241 -1817 290 -660 54 -1472 45 -2120 -24
-1131 -121 -2151 -381 -3175 -808 -1631 -681 -3045 -1738 -4119 -3077 -610
-761 -1096 -1595 -1458 -2504 -47 -118 -98 -232 -114 -254 -80 -111 -78 -260
7 -428 321 -639 2132 -1735 4864 -2944 391 -173 868 -378 1202 -516 l228 -94
-33 -31 c-17 -17 -157 -153 -309 -302 -305 -297 -463 -435 -623 -542 -145 -97
-262 -158 -590 -303 -326 -145 -394 -178 -530 -260 -317 -191 -543 -429 -695
-735 -122 -247 -185 -548 -148 -708 l15 -62 -34 -43 c-66 -86 -137 -243 -182
-401 -16 -57 -62 -177 -103 -268 -101 -223 -175 -408 -306 -765 -211 -577
-255 -755 -255 -1040 0 -302 68 -475 299 -760 236 -290 303 -399 368 -597 54
-163 53 -156 4 -162 -24 -3 -151 -12 -283 -21 -2068 -138 -3695 -358 -4389
-595 -277 -95 -443 -202 -474 -306 -8 -28 -12 -126 -12 -295 0 -236 1 -256 21
-296 66 -136 310 -256 746 -367 165 -42 199 -55 360 -134 217 -106 380 -172
668 -268 361 -120 705 -214 1148 -313 870 -195 2013 -372 3167 -491 426 -43
375 -31 411 -101 16 -33 85 -146 153 -252 68 -106 204 -325 301 -487 125 -208
194 -313 235 -355 31 -33 65 -75 75 -94 28 -56 138 -225 156 -241 9 -8 50 -67
89 -130 179 -284 619 -912 907 -1295 264 -351 314 -416 359 -456 21 -19 83
-77 138 -129 240 -226 378 -311 1911 -1172 396 -222 749 -421 785 -440 84 -47
225 -109 336 -148 82 -29 93 -36 188 -128 327 -313 1140 -980 1811 -1483 456
-342 984 -707 1330 -919 244 -149 925 -517 1103 -596 31 -14 72 -41 92 -60 19
-20 76 -56 125 -81 50 -25 102 -54 117 -65 l27 -19 -36 -57 c-20 -31 -75 -118
-123 -192 -176 -271 -351 -632 -401 -824 -30 -114 -37 -272 -15 -331 40 -105
181 -192 739 -460 979 -470 1432 -683 1543 -724 51 -19 78 -34 76 -43 -2 -7
-13 -47 -23 -88 -34 -131 -50 -289 -56 -550 -10 -434 18 -559 140 -622 40 -20
51 -21 227 -14 102 3 219 11 259 16 59 8 116 6 265 -10 247 -25 315 -30 1371
-95 1505 -94 1765 -111 4740 -315 2436 -167 3489 -236 4520 -294 822 -47 2030
-106 2166 -106 l69 0 0 3584 0 3585 -52 6 c-191 21 -1570 120 -4248 305 -2318
160 -2669 184 -5410 370 -245 16 -602 39 -795 50 -192 11 -424 25 -515 31
-318 20 -782 23 -930 6 -74 -8 -149 -13 -166 -10 -44 7 -108 -13 -143 -46
l-30 -28 -31 19 c-17 10 -73 36 -123 57 -359 153 -879 268 -1087 242 -55 -7
-66 -6 -74 8 -24 42 -89 91 -141 106 -30 9 -59 14 -64 11 -5 -3 -46 63 -92
147 -212 391 -253 450 -952 1377 -180 239 -398 566 -470 707 -71 138 -113 264
-132 390 -8 54 -24 289 -35 523 -11 234 -27 522 -36 640 -18 246 -13 347 22
468 44 152 93 232 318 515 108 137 147 193 143 207 -7 25 -20 23 318 55 2146
200 4011 559 5030 968 200 80 425 187 425 201 0 6 80 31 178 54 477 117 740
241 812 383 18 35 20 60 20 309 0 313 0 311 -94 398 -298 272 -1594 519 -3681
702 -688 60 -1399 110 -2065 145 -413 22 -422 23 -411 44 14 26 68 234 82 321
18 100 15 363 -4 470 l-15 85 67 73 c102 113 210 250 328 416 281 394 408 646
469 926 25 113 25 410 1 553 -36 208 -106 453 -192 672 -19 49 -33 91 -30 93
2 2 118 -21 257 -52 1146 -252 2059 -399 2843 -457 244 -18 711 -16 879 5 294
36 469 100 586 214 l69 67 60 185 c977 3018 447 6322 -1452 9049 -544 782
-1233 1535 -1986 2171 -593 501 -1239 946 -1896 1305 -88 48 -164 91 -170 96
-5 6 8 7 35 4 25 -2 98 -7 162 -10 99 -4 128 -10 193 -36 105 -42 194 -63 375
-89 147 -21 171 -22 450 -14 450 14 793 10 933 -10 283 -40 437 -97 1077 -399
484 -228 744 -311 1225 -391 293 -49 849 -116 1135 -137 163 -12 764 -8 1079
8 l134 6 -7 -24 c-18 -59 -18 -246 -2 -355 9 -60 22 -138 27 -174 27 -173 127
-391 232 -505 56 -62 140 -115 180 -115 10 0 56 -13 103 -30 149 -52 248 -64
754 -91 118 -6 216 -12 218 -14 1 -1 7 -94 12 -206 21 -481 128 -887 306
-1167 19 -28 33 -62 31 -74 -3 -31 45 -45 186 -58 546 -47 4922 -130 5580
-105 l197 7 0 3606 0 3605 -767 -6 c-2161 -19 -3367 -20 -3964 -3 -557 16
-850 14 -894 -4 -92 -37 -142 -70 -200 -132 -35 -37 -71 -81 -80 -98 l-16 -31
-157 6 c-86 4 -247 11 -357 16 -447 22 -594 23 -689 5 -104 -20 -137 -35 -168
-77 -19 -25 -28 -29 -53 -25 -16 3 -101 10 -188 16 -231 14 -305 42 -562 213
-280 187 -429 306 -1845 1477 -289 239 -571 469 -627 512 -110 83 -257 173
-356 218 -34 15 -74 38 -89 50 -65 51 -251 117 -413 145 -87 16 -415 28 -515
19z m451 -144 c150 -15 254 -43 428 -112 178 -71 133 -37 557 -428 681 -627
1247 -1093 1934 -1592 616 -446 703 -488 1086 -517 146 -12 278 -46 310 -82
28 -32 68 -49 112 -49 l40 0 21 -137 c34 -218 41 -356 41 -868 0 -637 -20
-1373 -50 -1885 -16 -265 -52 -694 -59 -702 -3 -4 -33 -1 -66 7 -281 65 -489
79 -1166 76 -670 -2 -871 9 -1369 75 -831 111 -1055 173 -1700 469 -531 245
-827 345 -1175 400 -179 28 -430 29 -915 2 -489 -26 -665 -25 -735 7 -41 18
-293 55 -525 76 -69 7 -309 13 -535 14 -393 2 -413 3 -475 24 -162 55 -230
166 -195 318 34 149 150 334 273 437 63 53 171 121 180 112 3 -3 29 8 57 24
125 71 251 90 615 96 165 2 315 9 376 18 87 13 109 13 154 1 95 -25 355 -64
423 -64 104 0 285 27 502 75 278 61 394 81 617 105 106 11 240 32 298 46 199
47 368 153 432 271 92 169 51 461 -133 953 -86 232 -113 311 -170 509 -84 286
-135 392 -247 504 -100 102 -221 162 -377 187 -38 6 -205 15 -370 20 -484 14
-700 52 -1275 226 -47 14 -125 31 -173 37 l-88 11 -33 52 c-18 29 -54 100 -82
158 -47 101 -69 126 -95 110 -31 -19 13 -209 68 -298 14 -21 21 -42 16 -46 -4
-3 -33 -17 -63 -30 -110 -45 -210 -118 -475 -345 -71 -62 -175 -147 -230 -190
-138 -108 -459 -319 -623 -411 -75 -42 -155 -88 -176 -101 -36 -23 -45 -25
-115 -19 -42 4 -112 15 -156 25 -106 25 -165 34 -165 26 0 -3 7 -19 15 -35 28
-55 177 -120 274 -120 l47 0 12 -68 c9 -58 65 -256 87 -313 5 -12 -7 -21 -53
-37 -133 -49 -261 -163 -303 -270 -15 -38 -24 -86 -27 -143 -5 -111 16 -190
99 -370 94 -206 112 -262 113 -349 0 -60 -4 -85 -24 -125 -29 -60 -98 -131
-175 -181 l-58 -36 -126 34 -126 34 -7 130 c-11 220 -54 429 -145 709 -58 179
-105 293 -243 600 -208 462 -203 447 -196 546 20 304 178 487 963 1115 500
400 708 590 849 778 48 66 85 99 204 188 352 262 566 307 1249 263 825 -53
1594 -44 2371 30 401 38 504 41 671 25z m-3161 -1501 c254 -92 444 -147 655
-189 50 -10 83 -19 75 -19 -136 -9 -411 -45 -452 -59 -60 -21 -208 -103 -443
-246 -88 -53 -270 -153 -405 -221 -135 -68 -270 -141 -299 -163 l-55 -39 -59
24 c-33 13 -70 31 -83 39 -13 9 -43 22 -68 29 -38 12 -46 12 -56 -1 -30 -36
31 -113 122 -154 66 -30 63 -27 50 -42 -6 -8 -29 -62 -52 -121 -41 -106 -80
-166 -152 -235 l-35 -33 -124 12 c-114 11 -266 8 -359 -7 l-37 -6 -6 61 c-4
33 -18 111 -32 172 -20 91 -23 115 -13 127 7 9 64 39 126 69 378 177 786 466
1142 808 245 235 346 270 560 194z m1331 -256 l275 -6 0 -236 c-1 -130 2 -266
7 -302 l7 -66 -92 -12 c-51 -6 -167 -25 -258 -41 -207 -37 -344 -50 -535 -50
-98 0 -172 -6 -214 -15 -35 -9 -65 -14 -66 -13 -7 8 -53 106 -58 123 -38 133
-50 165 -61 165 -19 0 -36 -53 -36 -110 0 -53 23 -141 50 -187 l18 -31 -51
-35 c-29 -18 -89 -65 -135 -103 -180 -149 -368 -264 -569 -348 l-63 -26 -72
42 c-39 24 -100 70 -135 102 -38 35 -68 55 -73 50 -13 -13 21 -105 54 -149 16
-20 45 -49 67 -64 l39 -29 -50 -20 -50 -21 -112 54 c-93 45 -165 72 -326 121
-7 2 4 19 29 41 55 50 78 87 128 213 23 57 53 119 67 137 30 40 93 73 227 120
291 101 640 297 854 481 54 46 108 83 130 90 21 6 106 19 188 27 183 19 324
47 430 84 44 16 87 27 95 24 8 -3 139 -8 291 -10z m620 -18 c21 -8 100 -142
133 -227 14 -37 47 -152 72 -255 72 -300 91 -353 262 -739 132 -299 172 -406
198 -534 l17 -85 -59 -53 c-139 -125 -288 -203 -447 -231 l-47 -8 6 76 c12
146 -22 312 -146 706 -93 299 -134 474 -219 959 -39 219 -71 401 -71 404 0 7
280 -5 301 -13z m-291 -820 c23 -119 99 -423 124 -494 9 -24 16 -47 16 -51 0
-4 -33 -10 -72 -13 -40 -3 -117 -11 -171 -17 -114 -14 -298 -2 -486 31 -64 12
-160 29 -215 38 -111 19 -105 14 -151 135 -16 44 -34 79 -40 78 -27 -3 -28
-133 -1 -196 l12 -30 -105 -71 c-63 -41 -160 -94 -238 -128 -148 -64 -206 -96
-307 -169 l-68 -50 -36 34 c-56 52 -74 75 -117 152 -45 78 -74 95 -96 54 -34
-64 21 -222 103 -292 41 -36 41 -36 23 -58 -32 -38 -139 -148 -145 -148 -3 0
-3 30 -2 67 5 93 -13 174 -60 272 -32 66 -57 101 -123 168 -46 46 -78 86 -72
88 7 1 44 8 82 15 165 27 379 123 553 247 51 37 148 119 216 184 90 85 134
120 162 128 26 7 84 7 186 1 251 -17 588 16 764 75 86 29 209 89 220 107 10
15 15 -3 44 -157z m7689 8 c46 -176 98 -556 121 -893 15 -213 20 -1074 10
-1484 -19 -742 -73 -1615 -145 -2371 -36 -370 -34 -357 -59 -351 -49 12 -240
36 -361 46 -169 13 -1053 50 -1216 50 -69 0 -161 3 -203 7 l-77 6 25 26 c36
38 99 170 145 303 58 170 94 356 127 668 5 47 12 69 25 78 23 16 25 67 4 79
-14 8 -14 27 -1 178 35 403 61 914 76 1505 5 217 15 570 21 784 12 398 8 737
-11 906 -22 189 -73 398 -122 493 l-20 40 34 -7 c237 -43 1248 -40 1395 4 15
4 69 9 119 9 l92 1 21 -77z m-10674 -512 c117 -25 208 -55 385 -124 135 -54
274 -127 240 -127 -8 0 -67 14 -130 30 -163 42 -324 56 -464 41 -61 -7 -178
-19 -261 -26 -85 -8 -179 -23 -217 -35 -75 -23 -165 -87 -173 -123 -12 -57
-11 -62 15 -59 14 1 84 3 155 3 145 1 283 -18 410 -58 96 -30 292 -130 424
-217 91 -59 190 -136 177 -136 -4 0 -59 27 -124 59 -65 33 -148 71 -183 86
-93 38 -416 121 -540 139 -113 17 -309 22 -309 8 0 -5 18 -57 41 -117 59 -157
79 -244 79 -346 0 -144 -46 -259 -136 -338 -42 -37 -139 -79 -152 -66 -3 3 22
33 55 67 109 114 150 220 140 358 -7 97 -73 311 -140 455 -44 94 -52 121 -55
183 -5 93 15 149 77 215 127 136 410 189 686 128z m2267 -145 c174 -45 343
-69 493 -70 176 0 266 15 338 58 l55 33 65 -181 c57 -160 124 -381 142 -473 8
-39 20 -36 -215 -58 -171 -16 -401 -52 -510 -80 -89 -22 -308 -63 -395 -74
-264 -33 -719 -44 -918 -22 -83 9 -190 12 -302 9 l-174 -5 44 61 c35 49 50 62
79 68 86 18 166 81 337 265 68 73 131 132 158 146 25 14 107 46 181 72 220 78
327 138 421 237 44 47 69 48 201 14z m-6167 -926 c713 -21 1281 -85 1955 -220
575 -115 1081 -254 1625 -446 l210 -75 1 -83 c0 -70 4 -92 29 -142 54 -112
160 -192 305 -231 57 -16 105 -18 409 -15 l343 3 192 -99 c1750 -902 3228
-2224 4279 -3829 1294 -1974 1890 -4239 1702 -6463 -51 -598 -155 -1182 -314
-1763 -72 -261 -57 -244 -125 -147 -118 168 -367 401 -670 628 -324 241 -999
664 -1431 896 l-71 38 17 67 c46 181 75 445 83 771 4 118 9 254 12 303 5 80 4
87 -13 87 -16 0 -19 8 -18 68 0 37 -4 78 -8 90 -8 22 -7 23 11 13 12 -6 23
-11 26 -11 3 0 6 77 6 170 0 94 -3 170 -7 170 -5 0 -22 -9 -39 -19 l-31 -19
19 37 c14 27 18 51 16 94 -5 64 -24 98 -79 135 -29 20 -44 23 -96 20 -70 -4
-103 -23 -141 -79 -20 -28 -23 -44 -20 -94 2 -33 8 -68 12 -77 8 -17 6 -17
-20 -3 -33 17 -84 19 -132 5 -30 -8 -33 -7 -27 8 17 45 16 108 -3 145 -22 41
-19 43 18 22 67 -38 176 -3 217 70 85 150 -82 317 -232 232 -73 -41 -108 -150
-70 -217 21 -37 19 -40 -22 -19 -43 22 -83 23 -136 5 -37 -14 -37 -13 -30 8 4
11 8 51 8 88 0 60 -3 70 -30 99 -34 36 -98 68 -134 69 -46 0 -112 -40 -143
-89 -27 -42 -29 -52 -25 -113 4 -62 3 -67 -14 -58 -23 13 -100 13 -133 1 -24
-10 -24 -9 -14 20 11 31 7 109 -7 143 -7 16 -6 17 13 7 37 -20 125 -14 163 12
55 37 79 81 79 147 0 102 -68 170 -170 170 -66 0 -110 -24 -147 -79 -26 -38
-32 -126 -12 -163 10 -19 9 -20 -7 -13 -35 14 -112 18 -144 6 -28 -9 -31 -9
-26 6 17 43 17 100 2 137 -20 49 -21 47 12 30 36 -19 106 -18 149 2 112 54
124 222 22 295 -71 51 -188 30 -240 -42 -29 -42 -37 -125 -16 -168 9 -17 14
-31 12 -31 -1 0 -19 7 -38 15 -44 18 -80 18 -128 1 l-36 -13 14 46 c11 36 11
56 2 94 -6 26 -15 50 -20 53 -5 3 -9 9 -9 14 0 4 17 -1 37 -11 107 -55 243 30
243 151 0 87 -83 170 -170 170 -121 0 -206 -136 -151 -243 10 -20 15 -37 11
-37 -5 0 -11 4 -14 9 -12 20 -95 32 -140 20 -70 -17 -78 -33 -87 -162 -5 -61
-18 -188 -29 -282 -11 -93 -25 -208 -30 -255 -6 -47 -17 -125 -24 -175 -8 -49
-17 -123 -21 -163 -7 -70 -6 -74 14 -79 19 -5 21 -10 16 -37 -6 -29 -24 -51
-47 -58 -6 -2 -25 -99 -43 -216 -18 -117 -34 -215 -37 -217 -2 -2 -73 28 -158
66 -441 200 -1238 542 -1685 724 -3090 1257 -6361 2345 -9185 3055 -2627 660
-4513 909 -5255 695 -44 -13 -81 -23 -82 -21 -1 1 25 67 58 146 1101 2640
3343 4680 6189 5630 1029 344 2118 537 3205 569 137 4 268 8 290 9 22 1 184
-3 360 -8z m-8785 -6436 c2366 -182 6797 -1380 11170 -3019 3826 -1434 6899
-2959 7878 -3909 111 -108 200 -212 248 -291 10 -16 -13 3 -51 44 -254 272
-573 521 -1080 843 -2831 1801 -9357 4317 -14430 5563 -1993 490 -3628 744
-4475 696 -300 -17 -519 -60 -652 -127 l-47 -24 11 33 c13 39 37 61 108 97
215 108 695 143 1320 94z m15418 -3124 c24 6 46 9 48 7 2 -2 -1 -19 -6 -38 -6
-19 -7 -53 -4 -76 l6 -43 -76 0 c-67 0 -76 2 -76 19 0 10 -3 46 -6 79 l-7 61
38 -10 c27 -8 51 -7 83 1z m-5248 -234 c154 -20 329 -51 435 -77 117 -29 345
-101 345 -109 0 -15 -208 -109 -263 -120 -73 -14 -106 -9 -292 45 -246 73
-353 88 -615 89 -187 1 -239 -2 -305 -18 -109 -25 -241 -72 -291 -104 -77 -48
-91 -109 -37 -152 37 -29 86 -25 216 14 233 71 496 113 630 101 100 -10 235
-39 390 -86 163 -50 261 -59 369 -35 90 20 283 113 338 162 l40 36 120 -61
c309 -157 565 -338 1026 -727 132 -111 331 -279 444 -374 552 -463 895 -837
1227 -1335 135 -204 148 -226 129 -219 -9 3 -25 21 -36 40 -51 82 -183 163
-335 205 -111 32 -283 32 -410 0 -96 -23 -245 -92 -405 -186 -52 -31 -119 -63
-149 -72 -180 -52 -371 91 -371 279 0 60 45 200 121 381 79 185 99 260 106
388 15 289 -132 520 -343 537 -61 4 -159 -12 -169 -29 -3 -4 14 -13 37 -19 32
-9 60 -29 110 -79 102 -105 147 -208 173 -401 25 -184 25 -188 -49 -278 -174
-217 -226 -331 -226 -502 0 -154 44 -257 159 -370 79 -79 164 -129 251 -149
72 -17 191 -13 259 8 l60 19 -1 -77 c-1 -43 6 -100 15 -131 32 -111 143 -243
262 -315 206 -123 431 -94 684 87 47 34 106 67 130 75 89 27 241 7 330 -43 61
-34 63 -23 4 20 -84 63 -163 96 -289 122 -192 39 -267 31 -438 -48 -76 -35
-99 -41 -155 -41 -116 0 -195 51 -299 193 -31 41 -74 98 -97 125 -23 28 -45
55 -48 62 -10 15 218 145 321 183 129 47 294 61 447 40 157 -23 226 -57 264
-133 25 -51 50 -60 83 -31 15 15 23 15 62 4 43 -12 46 -15 117 -144 112 -199
297 -572 371 -746 166 -391 281 -821 258 -963 -45 -281 -247 -570 -490 -704
-78 -43 -168 -70 -296 -87 -131 -18 -154 -26 -434 -161 -239 -115 -319 -143
-431 -152 -178 -14 -359 60 -415 170 -26 49 -36 143 -24 220 16 104 27 119
117 156 438 183 687 499 738 939 7 61 -8 154 -34 215 -34 79 -159 222 -177
204 -3 -3 6 -21 20 -41 92 -136 33 -444 -132 -687 -54 -79 -218 -246 -292
-296 -25 -17 -106 -63 -180 -103 -268 -144 -393 -242 -486 -382 -26 -38 -88
-150 -139 -248 -112 -215 -134 -248 -219 -327 -82 -77 -201 -138 -309 -158
-98 -19 -143 -19 -229 0 -187 39 -359 174 -520 407 -45 64 -85 115 -89 112 -4
-2 -13 -30 -20 -62 -31 -149 61 -369 209 -502 306 -275 785 -269 1117 15 106
91 205 248 280 445 20 51 52 125 73 164 l37 71 6 -88 c8 -113 52 -207 136
-291 204 -203 647 -236 913 -69 30 19 105 85 166 148 136 138 203 175 359 200
326 53 578 231 706 500 44 92 47 89 19 -19 -24 -96 -87 -244 -148 -351 -98
-171 -568 -885 -582 -885 -5 0 -17 -17 -27 -37 -10 -21 -96 -117 -193 -214
-198 -199 -283 -262 -412 -304 -46 -15 -104 -38 -129 -51 -70 -35 -143 -62
-249 -91 -92 -26 -106 -27 -443 -32 l-349 -6 5 25 c3 14 16 99 30 190 27 175
42 228 83 298 30 50 29 86 -3 90 -34 5 -122 -45 -180 -104 -71 -71 -107 -150
-137 -302 -38 -187 -83 -270 -176 -317 -26 -13 -107 -60 -180 -105 -86 -51
-144 -80 -163 -80 -20 0 -30 -6 -34 -19 -3 -11 -23 -27 -46 -37 -281 -115
-532 -67 -896 172 -174 115 -264 214 -305 338 -4 10 -9 16 -12 13 -9 -8 32
-164 69 -268 52 -144 81 -193 161 -277 181 -189 486 -294 786 -270 146 11 295
61 451 152 110 64 128 73 199 103 36 15 84 42 107 60 48 36 89 56 172 79 44
12 135 18 416 24 394 9 425 12 615 77 166 56 224 89 320 179 47 45 128 116
180 158 52 42 134 116 183 163 48 47 87 81 87 76 0 -25 -53 -291 -79 -398 -58
-234 -142 -439 -257 -621 -31 -49 -65 -107 -76 -129 -12 -22 -43 -72 -70 -111
l-49 -71 -52 14 c-104 28 -271 63 -299 63 -68 0 -39 -73 61 -154 78 -62 132
-94 223 -130 326 -129 819 -141 1107 -27 99 40 327 172 386 224 l58 52 102
-50 c122 -60 133 -68 156 -120 19 -41 26 -149 11 -171 -4 -7 -54 -26 -112 -43
-58 -16 -202 -65 -320 -107 -695 -247 -1021 -330 -1530 -386 -171 -19 -732
-16 -940 5 -204 21 -482 58 -476 64 2 3 43 13 90 23 190 42 461 157 622 266
154 103 429 400 537 578 61 102 140 262 135 276 -2 6 -21 -20 -42 -57 -113
-198 -307 -406 -493 -531 -313 -209 -566 -326 -873 -402 -145 -36 -314 -70
-350 -70 -62 0 -428 132 -572 206 l-37 19 197 1 c334 0 548 52 957 229 294
127 439 218 628 390 142 129 227 226 276 316 41 74 26 77 -22 5 -39 -59 -179
-213 -237 -260 -287 -236 -1069 -501 -1541 -523 -139 -6 -260 5 -434 42 -203
42 -210 45 -341 156 -65 55 -149 121 -186 146 -51 35 -65 49 -57 59 8 10 19 6
52 -15 100 -67 344 -141 587 -178 162 -24 486 -24 633 0 245 41 468 109 664
202 186 88 493 279 476 296 -4 4 -70 -23 -145 -60 -300 -149 -657 -237 -1057
-261 -325 -20 -577 6 -1001 103 l-104 24 44 28 c25 16 63 35 85 44 49 18 65
30 65 47 0 40 -134 48 -240 15 -137 -43 -299 -184 -456 -396 -188 -257 -281
-313 -604 -370 -450 -79 -575 -126 -915 -340 -423 -267 -731 -359 -1041 -311
-200 30 -359 108 -489 240 -127 128 -161 205 -215 487 -56 291 -41 378 109
634 42 71 126 275 154 375 35 124 57 280 39 280 -4 0 -25 -30 -46 -67 -56 -99
-132 -203 -237 -328 -100 -119 -161 -208 -205 -297 l-27 -56 -36 35 c-20 20
-99 88 -176 153 -166 138 -198 173 -238 258 -87 186 -46 397 129 660 172 258
431 473 707 586 169 70 304 97 792 160 385 50 542 95 670 191 106 80 137 130
222 360 59 159 96 227 166 302 71 75 144 125 234 159 186 70 432 73 563 6 46
-23 59 -36 82 -82 40 -79 47 -161 18 -227 -12 -28 -30 -59 -41 -69 -38 -35
-17 -74 40 -74 82 1 160 63 208 165 23 51 28 73 28 145 0 75 -4 93 -32 153
-79 166 -262 271 -473 270 -79 0 -110 -5 -188 -32 -223 -75 -425 -193 -539
-314 -55 -60 -84 -105 -153 -237 -91 -175 -133 -230 -233 -306 -129 -97 -240
-131 -562 -169 -327 -39 -383 -52 -610 -142 -391 -154 -684 -342 -990 -635
-154 -146 -239 -277 -286 -440 -29 -102 -38 -318 -16 -405 20 -77 66 -173 115
-237 20 -27 41 -55 47 -62 7 -9 -8 -30 -52 -76 -70 -74 -131 -165 -196 -293
-137 -273 -323 -441 -569 -517 -71 -22 -87 -23 -498 -24 -256 0 -439 -5 -461
-11 l-35 -10 23 64 c30 82 43 205 32 292 -8 70 -31 135 -93 276 -43 97 -48
167 -15 209 12 15 59 58 105 97 121 101 188 172 223 238 75 142 82 350 15 483
-27 53 -51 75 -41 37 37 -134 33 -222 -14 -335 -43 -104 -120 -182 -239 -243
-155 -80 -230 -143 -278 -236 -24 -44 -27 -61 -27 -140 1 -88 2 -94 60 -225
l59 -135 0 -105 c1 -100 -1 -109 -33 -175 -47 -96 -137 -185 -233 -230 -109
-51 -177 -66 -308 -66 -177 0 -317 35 -493 122 -295 146 -518 382 -637 674
-42 100 -105 313 -97 321 3 3 27 -10 54 -30 181 -130 443 -190 662 -152 155
27 272 84 385 187 122 112 178 253 179 449 0 83 -4 127 -16 158 l-16 42 84 0
c257 0 507 195 545 425 5 33 10 108 10 166 0 98 2 110 31 168 92 185 369 244
563 121 55 -35 61 -24 9 17 -105 82 -185 107 -318 101 -82 -3 -101 -8 -167
-41 -136 -67 -226 -175 -299 -359 -85 -213 -131 -276 -241 -328 -74 -35 -149
-46 -209 -30 -24 6 -95 31 -157 56 -180 72 -312 89 -464 60 -84 -16 -192 -57
-228 -87 l-25 -21 30 7 c186 42 288 20 480 -104 103 -66 153 -93 210 -111 56
-17 65 -33 65 -112 0 -120 -39 -200 -163 -334 -118 -127 -238 -189 -386 -201
-191 -14 -389 64 -559 221 -116 108 -185 201 -234 317 -56 133 -122 234 -279
429 -195 241 -252 335 -291 479 -17 62 -21 104 -21 226 0 198 29 337 129 630
268 776 319 937 408 1282 33 130 36 135 107 230 102 136 268 300 346 341 76
40 197 72 272 72 240 -1 469 -157 550 -375 39 -103 45 -183 26 -322 -10 -68
-15 -148 -12 -177 10 -100 68 -178 167 -225 47 -22 68 -26 150 -26 115 0 146
13 330 134 130 86 195 112 324 132 84 14 238 6 316 -16 80 -22 92 -18 35 12
-224 117 -455 118 -750 5 -146 -56 -225 -64 -298 -31 -37 17 -43 48 -26 143
38 218 -3 435 -115 610 -64 100 -190 217 -305 283 -2 1 13 18 32 38 23 24 45
63 63 113 42 120 53 140 101 182 76 67 265 130 391 130 124 0 246 -44 306
-110 36 -40 50 -77 61 -167 6 -47 5 -53 -12 -54 -15 -1 -16 -2 -1 -6 15 -4 38
-75 38 -117 0 -7 14 -40 31 -74 35 -72 110 -144 195 -189 61 -33 172 -58 187
-43 5 4 -19 20 -53 36 -105 47 -180 155 -180 258 0 56 8 59 100 42 141 -27
264 -31 360 -12 108 22 175 50 316 131 171 98 201 108 319 109 118 1 151 -14
211 -95 86 -118 96 -232 40 -451 -49 -191 -54 -200 -169 -308 -147 -138 -204
-237 -228 -391 -42 -271 174 -533 491 -595 205 -40 514 26 737 157 89 53 211
180 273 284 141 238 322 398 604 535 168 82 228 100 328 100 171 0 335 -38
423 -98 32 -22 43 -38 57 -85 30 -98 40 -218 28 -323 -9 -82 -16 -105 -54
-177 -27 -50 -54 -120 -69 -179 -26 -104 -53 -158 -121 -241 -23 -29 -59 -77
-79 -108 -44 -67 -166 -186 -257 -251 -36 -25 -106 -67 -155 -92 l-90 -47 60
7 c224 23 511 154 660 301 116 115 232 313 289 493 31 96 41 110 111 155 123
79 262 109 610 130 402 24 558 50 700 114 140 64 264 235 419 578 125 277 210
410 365 574 148 158 310 264 509 333 158 55 253 69 412 63 158 -6 216 -20 360
-87 117 -55 141 -56 190 -10 39 36 39 73 1 148 -49 97 -163 188 -266 213 -27
6 -51 13 -53 14 -2 2 10 25 27 52 49 79 91 220 104 349 8 86 8 158 -1 301 -15
230 -15 435 -2 540 34 250 105 529 154 603 27 41 32 60 17 60 -6 0 -55 -35
-109 -79 -106 -84 -163 -158 -222 -283 -76 -162 -106 -398 -87 -681 18 -265
15 -491 -6 -562 -38 -123 -113 -226 -213 -296 -23 -16 -44 -39 -48 -52 -5 -21
-14 -25 -63 -31 -143 -16 -328 -90 -470 -188 -43 -29 -139 -113 -214 -188
-196 -196 -293 -349 -460 -729 -129 -291 -184 -355 -343 -402 -33 -10 -93 -30
-132 -44 -105 -37 -232 -53 -494 -65 -340 -15 -491 -35 -626 -84 l-42 -14 -7
56 c-16 127 -76 245 -174 342 -169 166 -382 193 -716 90 -55 -17 -136 -43
-180 -56 -154 -48 -356 -158 -490 -267 -27 -23 -142 -131 -255 -241 -218 -214
-277 -257 -440 -324 -338 -138 -622 -94 -727 112 -49 94 -34 179 61 366 24 47
69 136 100 199 38 77 75 134 111 173 127 136 168 335 110 529 -4 13 9 12 87
-9 79 -20 111 -23 213 -19 146 4 240 27 349 83 45 23 129 66 187 96 58 30 115
57 127 60 35 9 26 27 -25 51 -43 20 -63 22 -183 21 -120 -2 -146 -5 -240 -34
-204 -61 -311 -53 -582 46 -196 71 -285 94 -395 101 -168 11 -257 -18 -529
-172 -99 -57 -209 -118 -245 -135 -84 -43 -221 -89 -287 -97 l-53 -6 7 74 c12
137 -32 261 -124 352 -229 224 -654 235 -968 25 -119 -80 -183 -171 -204 -293
-36 -204 -31 -197 -135 -178 -157 28 -363 -4 -508 -80 -34 -17 -65 -33 -69
-35 -11 -5 29 165 68 287 94 299 268 552 500 727 160 121 339 220 644 357 461
207 699 342 934 531 55 44 261 238 456 431 361 355 469 457 595 557 219 174
438 270 689 302 224 29 282 30 411 6 66 -12 165 -23 221 -24 l101 -1 -50 -65
c-59 -76 -100 -160 -123 -250 -14 -55 -16 -94 -10 -254 l7 -190 -40 61 c-40
59 -114 124 -178 157 -88 44 -275 59 -404 32 -181 -39 -357 -155 -482 -318
-75 -98 -115 -172 -204 -373 -41 -93 -95 -208 -119 -255 -95 -184 -214 -303
-389 -389 -104 -51 -151 -65 -430 -121 -253 -51 -315 -68 -390 -104 -62 -31
-165 -116 -165 -138 0 -11 0 -11 66 21 32 16 83 34 112 40 76 16 219 14 352
-5 260 -37 475 15 697 168 204 140 315 301 501 726 80 180 128 258 217 347
140 140 315 201 475 164 63 -14 240 -86 269 -108 l24 -19 -29 -15 c-16 -8 -92
-31 -168 -51 -167 -43 -212 -63 -272 -123 -81 -82 -124 -193 -124 -325 0 -180
89 -327 244 -399 48 -22 86 -31 171 -39 61 -6 140 -15 176 -20 38 -6 267 -7
545 -4 400 4 509 9 659 27 99 11 245 21 325 21 139 1 147 0 208 -28 47 -22 82
-49 146 -117 76 -80 88 -89 121 -89 47 0 71 13 91 52 45 87 -56 258 -204 345
-136 80 -276 97 -547 69 -323 -35 -394 -45 -595 -90 -317 -69 -509 -100 -635
-100 -103 -1 -114 1 -176 30 -36 17 -83 44 -105 60 -57 42 -153 150 -171 192
-24 58 -19 152 12 219 57 125 127 176 319 232 60 18 129 43 152 57 61 36 129
115 156 182 21 53 22 70 20 228 -2 154 0 178 18 228 46 123 157 234 305 306
110 53 158 64 480 110 154 22 298 43 320 47 l39 6 -23 -34 c-41 -61 -79 -153
-91 -219 -6 -36 -20 -85 -30 -110 -43 -108 -34 -206 31 -337 36 -73 53 -93
144 -176 113 -101 227 -173 308 -194 70 -18 285 -17 415 3 141 21 281 58 547
144 394 127 523 157 720 167 193 9 359 -28 475 -105 119 -80 127 -142 43 -332
-75 -168 -86 -216 -85 -345 0 -60 8 -144 16 -185 16 -75 102 -270 118 -270 5
0 30 -18 56 -39 26 -22 72 -52 102 -68 50 -25 65 -28 155 -28 81 0 112 4 163
24 72 27 150 92 187 155 26 45 68 156 61 163 -2 2 -26 -18 -53 -45 -63 -63
-143 -92 -253 -92 -98 0 -157 21 -218 75 -90 81 -129 218 -103 357 7 35 36
117 66 183 75 169 88 221 83 321 -6 111 -44 189 -133 272 -149 140 -442 226
-700 207 -197 -15 -333 -47 -720 -170 -319 -102 -490 -145 -601 -152 -76 -5
-87 -3 -220 42 -253 85 -326 129 -378 224 l-27 51 21 92 c34 146 58 217 92
267 46 68 129 151 153 151 30 0 47 15 49 41 1 27 -25 21 431 88 274 40 485 65
675 81 164 13 714 4 860 -14z m5540 -45 c0 -15 -3 -49 -6 -75 l-7 -47 -66 3
-66 3 -3 73 -3 72 76 0 75 0 0 -29z m712 -222 c23 6 44 9 45 7 2 -1 -2 -17 -8
-35 -6 -18 -9 -52 -5 -77 l6 -44 -75 0 -75 0 0 28 c0 15 -3 50 -6 79 l-7 51
42 -9 c25 -6 57 -6 83 0z m-466 -21 c-3 -13 -6 -44 -6 -70 l0 -48 -65 0 -65 0
0 39 c0 21 -3 53 -6 70 l-6 31 77 0 c75 0 77 -1 71 -22z m-510 -4 c-3 -9 -6
-36 -6 -60 l0 -44 -55 0 c-54 0 -55 1 -55 29 0 16 -3 43 -6 60 l-6 31 67 0
c57 0 66 -2 61 -16z m1777 -225 c-12 -24 -14 -49 -10 -100 6 -65 5 -69 -13
-59 -24 13 -101 13 -135 0 -24 -9 -26 -8 -20 7 17 40 17 111 1 143 -14 30 -14
31 2 24 48 -22 123 -16 189 15 1 1 -6 -13 -14 -30z m-513 -51 c0 -95 -2 -98
-81 -98 l-69 0 0 75 0 75 75 0 75 0 0 -52z m-510 -23 l0 -65 -65 0 -65 0 0 65
0 65 65 0 65 0 0 -65z m-510 5 l0 -50 -49 0 c-46 0 -49 1 -55 31 -13 66 -11
69 49 69 l55 0 0 -50z m1270 -197 c0 -10 -3 -42 -6 -70 l-7 -53 -62 0 c-71 0
-75 4 -75 93 l0 47 75 0 c65 0 75 -2 75 -17z m-514 -30 c-3 -21 -6 -48 -6 -60
0 -21 -5 -23 -54 -23 l-53 0 -7 46 c-10 77 -13 74 60 74 l67 0 -7 -37z m-510
5 c-3 -13 -6 -33 -6 -45 0 -20 -5 -23 -45 -23 l-45 0 0 38 c0 21 3 42 7 45 3
4 26 7 51 7 41 0 44 -2 38 -22z m-518 -20 c-2 -17 -11 -24 -30 -26 -24 -3 -28
0 -28 22 0 22 4 26 31 26 26 0 30 -3 27 -22z m1782 -258 l0 -70 -64 0 -64 0
-4 70 -3 70 68 0 67 0 0 -70z m-510 5 l0 -55 -55 0 -55 0 0 55 0 55 55 0 55 0
0 -55z m-512 3 c-3 -30 -6 -33 -40 -36 -37 -3 -38 -3 -38 32 0 35 1 36 41 36
39 0 40 -1 37 -32z m-520 10 c-3 -7 -11 -13 -18 -13 -7 0 -15 6 -17 13 -3 7 4
12 17 12 13 0 20 -5 18 -12z m1282 -237 c0 -10 -3 -33 -6 -50 -6 -29 -9 -31
-50 -31 -43 0 -44 0 -44 34 0 19 -3 41 -6 50 -5 13 3 16 50 16 48 0 56 -3 56
-19z m-520 -21 c0 -26 -3 -30 -29 -30 -23 0 -30 5 -33 25 -5 26 3 33 40 34 18
1 22 -4 22 -29z m760 -244 c0 -43 -10 -56 -45 -56 -25 0 -34 5 -39 23 -13 50
-9 57 39 57 41 0 45 -2 45 -24z m-520 -7 c0 -15 -5 -20 -22 -17 -34 5 -37 38
-4 38 20 0 26 -5 26 -21z m-2340 -6234 c160 -8 764 -43 945 -55 847 -58 1283
-94 1945 -161 1451 -146 2463 -331 2857 -523 97 -47 173 -107 173 -136 0 -49
-155 -141 -352 -209 -982 -338 -3683 -614 -7273 -741 -1326 -47 -2171 -61
-3855 -65 -1781 -3 -2666 7 -4060 50 -4184 129 -7272 461 -7985 859 -58 33
-115 85 -115 106 0 23 66 81 129 114 438 230 1685 445 3516 605 397 35 1044
84 1280 96 61 3 119 8 130 10 19 4 23 -7 48 -110 60 -252 149 -461 268 -630
93 -131 271 -306 399 -391 258 -171 517 -256 785 -256 201 0 280 21 515 132
81 39 149 64 195 72 48 8 215 12 530 13 438 1 464 2 542 23 199 52 356 139
497 272 107 102 127 138 303 550 8 19 36 72 61 116 l46 82 96 -78 c187 -152
253 -243 284 -395 101 -494 125 -562 251 -723 93 -119 265 -244 419 -303 295
-114 593 -113 941 2 157 52 299 123 520 259 343 211 427 245 745 299 311 53
440 96 581 191 114 78 225 208 342 400 l38 63 52 -89 c136 -233 530 -516 951
-684 673 -269 1607 -356 2456 -229 692 104 1363 337 1675 583 22 17 61 37 88
44 77 20 122 54 153 117 52 107 31 216 -61 314 -57 61 -116 87 -236 102 -142
19 -152 18 -159 -10 -5 -21 -25 -31 -149 -73 -301 -102 -746 -153 -1008 -117
l-82 12 70 75 c83 89 150 189 221 329 l53 104 60 -5 c33 -3 112 -8 175 -11z
m-17363 -1255 c1276 -413 4928 -716 9533 -789 620 -10 3252 -10 3900 0 4907
76 8822 432 9753 888 l97 48 0 -115 0 -115 -34 -31 c-219 -208 -1268 -427
-2816 -591 -1484 -156 -3502 -278 -5475 -330 -115 -3 -277 -7 -360 -10 -82 -3
-402 -10 -710 -17 -933 -20 -4785 -15 -5130 7 -38 2 -205 7 -370 10 -1712 32
-3906 151 -5445 295 -1832 173 -3068 417 -3269 646 -31 34 -31 36 -31 144 l0
109 102 -50 c57 -27 171 -72 255 -99z m1395 -735 c4668 -682 15430 -684 20112
-4 114 17 210 28 213 26 2 -3 -74 -30 -169 -61 -1555 -501 -4127 -859 -7198
-1001 -854 -39 -1453 -54 -2455 -61 -4156 -31 -8034 338 -10219 971 -221 64
-491 153 -469 154 6 1 89 -10 185 -24z m4903 -1055 c239 -21 742 -60 970 -75
343 -22 316 -17 339 -73 40 -100 193 -353 294 -487 l30 -40 -76 -1 c-138 -1
-275 -58 -359 -147 -26 -28 -42 -52 -36 -54 6 -2 62 12 125 32 63 20 152 41
203 46 50 5 117 16 150 23 l59 14 166 -171 c91 -94 272 -262 405 -377 343
-296 479 -442 710 -765 60 -82 131 -179 159 -213 28 -35 50 -67 49 -70 -1 -3
-22 -14 -48 -24 -26 -10 -74 -37 -108 -60 -72 -49 -232 -191 -247 -219 -18
-33 15 -34 57 -1 57 44 140 88 213 110 36 11 111 35 166 52 l102 31 123 -54
c68 -30 234 -100 369 -155 318 -130 633 -266 895 -385 457 -208 602 -254 876
-277 214 -19 570 23 770 90 63 22 125 37 136 34 11 -3 24 -1 27 5 4 6 30 11
58 11 127 0 384 75 583 169 139 66 420 227 550 315 114 76 265 227 334 331
143 217 232 473 311 895 98 521 118 600 181 719 22 40 59 119 83 175 52 120
216 468 225 478 7 8 610 52 617 46 2 -3 -5 -27 -16 -55 -27 -71 -36 -146 -19
-160 30 -24 139 -44 269 -50 85 -3 131 -2 125 4 -11 10 -227 78 -283 89 -18 4
-35 10 -38 15 -4 8 10 111 22 150 3 13 35 18 172 28 216 15 502 39 572 47 l55
6 -108 -82 c-133 -102 -209 -176 -288 -282 -113 -151 -182 -322 -208 -513 -14
-96 -14 -396 -1 -670 5 -115 14 -318 20 -451 15 -352 45 -551 106 -700 139
-339 314 -608 826 -1271 388 -502 484 -637 730 -1030 47 -76 130 -196 182
-266 53 -71 96 -138 96 -148 0 -10 -24 -115 -54 -231 -133 -524 -263 -883
-617 -1710 -257 -601 -385 -875 -561 -1203 -125 -232 -128 -236 -146 -226 -11
6 -17 22 -17 43 0 31 -2 33 -33 30 -43 -3 -78 22 -104 72 -11 23 -36 62 -54
89 -26 35 -33 54 -28 72 5 19 2 25 -10 25 -9 0 -16 -4 -16 -10 0 -16 -18 -12
-58 14 -20 14 -86 46 -147 72 -60 27 -135 64 -165 84 -30 20 -95 60 -145 90
-86 51 -427 272 -825 535 -242 160 -860 594 -1170 820 -335 245 -652 483
-1345 1014 -619 474 -777 591 -923 681 -49 30 -140 89 -203 132 -63 42 -193
121 -289 176 -391 222 -1426 801 -1730 967 -487 267 -788 457 -901 569 -25 24
-90 124 -158 241 -311 534 -912 1372 -1318 1837 -59 68 -119 138 -135 156 -15
18 -28 43 -28 56 0 34 -107 245 -198 393 -114 183 -215 322 -358 494 l-125
149 38 -5 c21 -3 88 -9 148 -15z m1870 -131 l260 -13 97 -89 c113 -102 214
-212 351 -384 54 -67 131 -158 172 -201 l74 -78 -77 -23 c-145 -42 -355 -161
-329 -187 4 -5 72 13 150 39 78 26 191 57 250 68 l108 21 97 -65 c53 -35 171
-113 262 -172 229 -151 340 -262 471 -470 57 -92 119 -176 159 -217 l65 -67
-45 -11 c-91 -23 -157 -69 -266 -184 -57 -61 -100 -112 -95 -114 5 -2 32 11
59 28 64 39 208 102 326 142 50 17 103 39 118 50 27 19 27 19 87 -11 33 -17
117 -54 188 -82 250 -100 468 -231 763 -460 418 -325 577 -436 767 -535 l83
-44 -112 0 c-262 0 -457 34 -661 114 -62 24 -227 96 -367 161 -532 245 -1195
498 -1432 547 -44 9 -58 16 -58 29 0 35 -112 238 -196 354 -231 321 -409 513
-754 810 -330 284 -561 524 -873 909 -70 86 -127 157 -127 159 0 1 51 -1 112
-4 62 -4 230 -13 373 -20z m6768 -56 c-53 -80 -204 -386 -226 -458 -9 -27 -21
-77 -27 -110 -7 -33 -32 -116 -57 -185 -61 -167 -112 -337 -184 -615 -120
-462 -212 -668 -376 -845 -119 -129 -379 -308 -738 -508 -61 -35 -92 -47 -96
-39 -17 30 -30 132 -39 304 -18 325 -48 479 -154 788 -40 118 -68 220 -75 270
-5 44 -9 206 -9 360 1 160 -4 325 -11 385 -28 242 -75 456 -126 566 l-32 71
296 7 c439 10 1614 57 1761 70 19 1 58 3 87 4 l51 2 -45 -67z m-5809 13 l320
-11 3 -35 c2 -19 31 -114 64 -210 171 -496 228 -664 226 -666 -5 -5 -356 252
-432 316 -44 38 -168 157 -275 265 -204 207 -274 265 -384 316 -36 17 -66 35
-66 40 0 5 47 7 113 3 61 -3 256 -11 431 -18z m1103 -32 l201 -6 116 -235 c64
-129 152 -317 196 -418 96 -221 132 -285 232 -412 6 -8 -5 -7 -38 3 -87 26
-198 12 -327 -42 -122 -51 -142 -82 -37 -57 34 7 152 17 263 21 l202 8 55 -45
c92 -76 272 -262 334 -344 77 -104 159 -235 240 -385 36 -68 80 -143 96 -167
17 -24 30 -46 30 -48 0 -2 -24 -7 -52 -10 -98 -10 -238 -73 -222 -99 4 -7 40
-9 99 -6 76 4 105 11 158 36 l65 30 34 -35 c37 -39 160 -124 293 -203 198
-119 413 -311 522 -467 l42 -60 -37 -7 c-20 -3 -63 -6 -96 -6 -32 0 -87 -5
-122 -12 l-62 -11 -105 67 c-145 92 -324 227 -582 440 -398 329 -497 403 -685
516 -113 68 -162 92 -370 179 -253 106 -324 157 -423 309 -35 54 -89 135 -120
182 -30 47 -82 115 -115 151 -52 59 -60 73 -65 121 -4 29 -20 96 -35 148 -62
203 -272 728 -334 833 l-29 49 238 -6 c131 -3 329 -9 440 -12z m1560 -17 c1
-2 -3 -279 -10 -617 -17 -959 -16 -1035 28 -1165 4 -11 -16 23 -45 75 -119
220 -275 418 -471 599 -214 196 -272 275 -375 508 -127 285 -212 425 -348 572
l-41 43 630 -7 c346 -3 631 -7 632 -8z m913 -29 c0 -24 15 -138 34 -253 45
-276 58 -470 54 -797 l-3 -269 -25 6 c-48 12 -188 6 -237 -11 -70 -24 -165
-73 -159 -83 3 -5 25 -5 48 0 24 4 120 5 214 2 l171 -6 25 -86 c14 -47 48
-151 76 -231 64 -185 99 -343 112 -506 24 -292 30 -344 49 -399 11 -31 32 -72
45 -90 l25 -33 -52 -22 c-77 -34 -236 -90 -252 -90 -8 0 -30 33 -50 75 -83
175 -231 353 -387 467 -40 30 -129 90 -198 133 -149 94 -274 211 -282 262 -2
18 0 37 5 42 6 6 6 47 -1 113 -23 208 -24 314 -7 615 24 419 17 848 -17 1048
l-24 140 40 6 c23 3 211 7 419 7 l377 2 0 -42z m5570 -5021 c52 -14 178 -44
280 -67 207 -47 348 -86 590 -165 205 -66 257 -81 345 -96 52 -9 81 -20 114
-45 24 -19 50 -34 58 -34 10 0 13 -11 9 -47 -3 -27 -8 -113 -11 -193 -27 -668
-158 -1550 -375 -2525 -122 -550 -399 -1632 -658 -2575 l-48 -175 -44 3 c-55
3 -272 56 -346 84 -47 18 -54 24 -54 48 0 37 -26 46 -42 15 l-13 -24 -100 43
c-55 24 -264 121 -465 216 -933 441 -1468 689 -1563 723 -14 5 -10 13 29 49
146 135 594 804 864 1293 329 595 851 1782 1068 2430 128 381 232 832 232
1009 0 60 2 68 18 63 9 -3 60 -16 112 -30z"/>
<path d="M24762 33910 c-250 -35 -414 -186 -414 -381 0 -75 24 -133 68 -168
65 -51 261 -87 423 -78 88 5 203 26 216 39 2 2 -81 3 -183 3 -157 0 -202 4
-281 23 -51 12 -107 30 -124 40 -93 54 -94 205 -2 326 35 47 117 101 190 127
47 16 98 22 233 29 95 4 175 10 178 13 8 8 -90 26 -171 31 -38 2 -99 1 -133
-4z"/>
<path d="M25116 33863 c-71 -108 -84 -369 -25 -486 35 -68 44 -44 41 110 -2
95 2 170 12 229 18 101 21 184 6 184 -5 0 -21 -17 -34 -37z"/>
<path d="M26094 33773 c-11 -103 -11 -349 -1 -446 10 -93 28 -98 40 -11 10 68
3 490 -8 517 -14 34 -23 16 -31 -60z"/>
<path d="M25859 33776 c-75 -161 -56 -376 45 -501 13 -16 27 -28 30 -25 3 3
-4 69 -15 145 -16 109 -20 169 -16 270 3 72 7 139 9 149 2 10 -3 21 -10 23 -7
3 -24 -21 -43 -61z"/>
<path d="M24702 32448 c-16 -16 -15 -33 4 -48 22 -19 54 12 38 37 -14 22 -27
26 -42 11z"/>
<path d="M24941 32182 c-21 -39 32 -57 63 -23 17 19 17 20 -3 30 -29 16 -49
13 -60 -7z"/>
<path d="M25192 31948 c-16 -16 -15 -33 4 -52 20 -21 34 -20 63 4 l23 20 -23
20 c-28 22 -50 25 -67 8z"/>
<path d="M25697 31943 c-11 -10 -8 -41 4 -48 16 -11 59 4 59 20 0 23 -48 44
-63 28z"/>
<path d="M25446 31705 c-32 -48 9 -95 48 -55 20 19 20 22 4 47 -22 37 -32 38
-52 8z"/>
<path d="M25949 31697 c-16 -34 -5 -59 23 -55 30 4 35 39 9 62 -20 18 -21 18
-32 -7z"/>
<path d="M25696 31458 c-20 -29 -20 -47 0 -69 15 -17 18 -17 40 -2 13 8 24 23
24 32 0 19 -27 61 -40 61 -5 0 -16 -10 -24 -22z"/>
<path d="M26192 31448 c-17 -17 -15 -32 8 -53 18 -16 23 -17 45 -5 31 17 32
34 3 54 -27 19 -40 20 -56 4z"/>
<path d="M25942 31210 c-27 -36 -27 -45 -2 -70 27 -27 46 -25 66 5 15 23 15
27 -6 60 -12 19 -25 35 -29 35 -4 0 -17 -13 -29 -30z"/>
<path d="M26430 31184 c0 -29 21 -54 45 -54 35 0 40 18 14 46 -25 27 -59 32
-59 8z"/>
<path d="M25694 30972 c-9 -5 -4 -22 15 -60 26 -51 27 -52 49 -36 55 38 -7
133 -64 96z"/>
<path d="M26185 30950 c-21 -24 -13 -65 18 -84 40 -25 86 47 52 84 -10 11 -26
20 -35 20 -9 0 -25 -9 -35 -20z"/>
<path d="M25930 30713 c-41 -52 -19 -103 44 -103 75 0 75 104 -2 123 -16 4
-28 -2 -42 -20z"/>
<path d="M26437 30702 c-20 -22 -21 -33 -6 -66 15 -33 43 -39 67 -12 27 30 34
54 22 77 -14 25 -61 25 -83 1z"/>
<path d="M26192 30480 c-12 -5 -27 -21 -32 -35 -21 -55 30 -106 85 -85 52 20
52 100 0 120 -15 6 -27 10 -28 9 -1 0 -12 -4 -25 -9z"/>
<path d="M26677 30462 c-32 -35 -10 -102 33 -102 24 0 80 42 80 60 0 19 -56
60 -82 60 -8 0 -22 -8 -31 -18z"/>
<path d="M26425 30215 c-14 -13 -25 -33 -25 -45 0 -11 11 -32 25 -45 13 -14
34 -25 45 -25 12 0 32 11 45 25 14 13 25 34 25 45 0 12 -11 32 -25 45 -13 14
-33 25 -45 25 -11 0 -32 -11 -45 -25z"/>
<path d="M26930 30213 c-41 -52 -19 -103 44 -103 75 0 75 104 -2 123 -16 4
-28 -2 -42 -20z"/>
<path d="M26183 29988 c-55 -27 -50 -114 8 -138 89 -37 151 99 63 139 -30 13
-42 13 -71 -1z"/>
<path d="M26670 29970 c-11 -11 -20 -33 -20 -50 0 -17 9 -39 20 -50 11 -11 33
-20 50 -20 17 0 39 9 50 20 11 11 20 33 20 50 0 17 -9 39 -20 50 -11 11 -33
20 -50 20 -17 0 -39 -9 -50 -20z"/>
<path d="M27171 29966 c-16 -20 -17 -72 -1 -91 15 -18 81 -20 98 -3 7 7 12 28
12 48 0 20 -5 41 -12 48 -17 17 -83 15 -97 -2z"/>
<path d="M26415 29725 c-16 -15 -25 -36 -25 -55 0 -19 9 -40 25 -55 15 -16 36
-25 55 -25 19 0 40 9 55 25 16 15 25 36 25 55 0 19 -9 40 -25 55 -15 16 -36
25 -55 25 -19 0 -40 -9 -55 -25z"/>
<path d="M26917 29722 c-23 -25 -22 -85 1 -105 25 -23 85 -22 105 1 23 25 22
85 -1 105 -25 23 -85 22 -105 -1z"/>
<path d="M27416 29708 c-21 -30 -20 -50 5 -82 20 -26 42 -32 73 -20 13 5 11
15 -14 65 -17 32 -34 59 -40 59 -5 0 -16 -10 -24 -22z"/>
<path d="M26662 29480 c-29 -27 -30 -88 -2 -118 29 -31 89 -30 118 1 30 32 29
87 -1 115 -30 29 -86 29 -115 2z"/>
<path d="M27182 29484 c-53 -37 -48 -111 8 -134 85 -35 148 100 64 139 -33 15
-45 14 -72 -5z"/>
<path d="M26405 29235 c-19 -18 -25 -35 -25 -65 0 -30 6 -47 25 -65 18 -19 35
-25 65 -25 30 0 47 6 65 25 19 18 25 35 25 65 0 30 -6 47 -25 65 -18 19 -35
25 -65 25 -30 0 -47 -6 -65 -25z"/>
<path d="M26934 29246 c-66 -29 -62 -131 5 -154 103 -36 165 112 65 154 -39
16 -32 16 -70 0z"/>
<path d="M27415 29225 c-16 -15 -25 -36 -25 -55 0 -19 9 -40 25 -55 15 -16 36
-25 55 -25 19 0 40 9 55 25 16 15 25 36 25 55 0 19 -9 40 -25 55 -15 16 -36
25 -55 25 -19 0 -40 -9 -55 -25z"/>
<path d="M26682 29005 c-21 -9 -38 -27 -48 -50 -13 -31 -13 -39 0 -70 39 -92
176 -67 176 32 0 47 -16 72 -55 89 -40 16 -32 17 -73 -1z"/>
<path d="M27160 28982 c-21 -21 -30 -40 -30 -62 0 -22 9 -41 30 -62 27 -26 36
-30 68 -25 45 8 82 47 82 87 0 40 -37 79 -82 87 -32 5 -41 1 -68 -25z"/>
<path d="M27662 28977 c-50 -53 -13 -137 59 -137 47 0 79 34 79 81 0 71 -90
107 -138 56z"/>
<path d="M26450 28766 c0 -9 31 -172 35 -184 4 -10 11 -9 35 3 37 19 50 43 50
90 0 48 -44 95 -89 95 -17 0 -31 -2 -31 -4z"/>
<path d="M26935 28761 c-64 -27 -81 -110 -32 -158 20 -21 37 -28 67 -28 116 0
130 170 15 190 -16 2 -39 1 -50 -4z"/>
<path d="M27406 28734 c-19 -19 -26 -37 -26 -64 0 -27 7 -45 26 -64 19 -19 37
-26 64 -26 27 0 45 7 64 26 19 19 26 37 26 64 0 27 -7 45 -26 64 -19 19 -37
26 -64 26 -27 0 -45 -7 -64 -26z"/>
<path d="M27897 28703 c-17 -16 -6 -70 19 -94 l26 -24 -7 34 c-10 49 -30 92
-38 84z"/>
<path d="M26672 28515 c-45 -20 -66 -71 -52 -125 13 -48 49 -75 100 -75 51 0
87 27 100 75 15 55 -7 106 -54 125 -43 18 -52 18 -94 0z"/>
<path d="M27171 28506 c-87 -48 -50 -186 49 -186 77 0 129 99 82 156 -35 43
-86 55 -131 30z"/>
<path d="M27655 28485 c-19 -18 -25 -35 -25 -65 0 -30 6 -47 25 -65 18 -19 35
-25 65 -25 30 0 47 6 65 25 19 18 25 35 25 65 0 30 -6 47 -25 65 -18 19 -35
25 -65 25 -30 0 -47 -6 -65 -25z"/>
<path d="M26918 28264 c-30 -16 -58 -61 -58 -94 0 -12 7 -34 15 -50 17 -32 61
-60 95 -60 34 0 78 28 95 60 8 16 15 38 15 50 0 34 -28 78 -60 95 -36 19 -67
19 -102 -1z"/>
<path d="M27399 28241 c-23 -23 -29 -38 -29 -71 0 -33 6 -48 29 -71 23 -23 38
-29 71 -29 33 0 48 6 71 29 23 23 29 38 29 71 0 33 -6 48 -29 71 -23 23 -38
29 -71 29 -33 0 -48 -6 -71 -29z"/>
<path d="M27935 28261 c-64 -27 -81 -110 -32 -158 20 -21 37 -28 67 -28 116 0
130 170 15 190 -16 2 -39 1 -50 -4z"/>
<path d="M26544 28204 c10 -70 15 -84 30 -78 17 7 -3 115 -23 122 -11 4 -12
-5 -7 -44z"/>
<path d="M26670 28023 c-95 -49 -83 -183 20 -214 53 -16 107 10 134 65 17 36
18 43 5 79 -25 71 -96 102 -159 70z"/>
<path d="M27144 27996 c-28 -28 -34 -42 -34 -76 0 -34 6 -48 34 -76 28 -28 42
-34 76 -34 34 0 48 6 76 34 28 28 34 42 34 76 0 34 -6 48 -34 76 -28 28 -42
34 -76 34 -34 0 -48 -6 -76 -34z"/>
<path d="M27646 27994 c-21 -21 -26 -36 -26 -74 0 -38 5 -53 26 -74 21 -21 36
-26 74 -26 38 0 53 5 74 26 21 21 26 36 26 74 0 38 -5 53 -26 74 -21 21 -36
26 -74 26 -38 0 -53 -5 -74 -26z"/>
<path d="M28130 27956 c-15 -40 -12 -60 11 -90 23 -29 55 -36 45 -10 -4 9 -11
37 -18 63 -14 60 -25 71 -38 37z"/>
<path d="M26925 27780 c-33 -13 -65 -55 -71 -92 -19 -112 118 -180 198 -100
90 90 -10 241 -127 192z"/>
<path d="M27391 27751 c-27 -25 -31 -36 -31 -79 0 -43 5 -55 31 -81 26 -26 38
-31 79 -31 41 0 53 5 79 31 26 26 31 38 31 79 0 41 -5 53 -31 79 -26 26 -38
31 -79 31 -39 0 -54 -5 -79 -29z"/>
<path d="M27913 27761 c-45 -28 -63 -88 -40 -137 56 -117 235 -47 198 77 -20
68 -98 97 -158 60z"/>
<path d="M26674 27539 c-44 -13 -58 -52 -50 -131 9 -75 19 -96 54 -109 68 -26
154 25 167 100 16 96 -74 170 -171 140z"/>
<path d="M27158 27524 c-77 -41 -75 -169 2 -209 60 -31 137 -10 165 45 57 110
-58 223 -167 164z"/>
<path d="M27681 27527 c-69 -24 -98 -116 -54 -175 39 -53 134 -60 177 -13 80
89 -10 227 -123 188z"/>
<path d="M28162 27510 c-63 -38 -70 -114 -17 -167 33 -33 39 -35 81 -30 28 3
54 13 67 25 19 19 19 24 7 82 -22 106 -66 134 -138 90z"/>
<path d="M26903 27280 c-85 -51 -81 -179 6 -225 61 -31 136 -11 171 48 70 114
-63 247 -177 177z"/>
<path d="M27384 27256 c-30 -30 -34 -40 -34 -86 0 -46 4 -56 34 -86 30 -30 40
-34 86 -34 46 0 56 4 86 34 30 30 34 40 34 86 0 46 -4 56 -34 86 -30 30 -40
34 -86 34 -46 0 -56 -4 -86 -34z"/>
<path d="M27910 27268 c-19 -13 -41 -35 -48 -48 -20 -39 -8 -98 27 -134 27
-26 39 -31 81 -31 40 0 54 5 79 29 102 98 -23 263 -139 184z"/>
<path d="M26672 27045 c-22 -16 -23 -21 -19 -127 4 -128 13 -143 80 -135 164
21 165 253 1 273 -27 4 -46 0 -62 -11z"/>
<path d="M27129 27011 c-35 -35 -39 -44 -39 -91 0 -47 4 -56 39 -91 35 -35 44
-39 91 -39 47 0 56 4 91 39 35 35 39 44 39 91 0 47 -4 56 -39 91 -35 35 -44
39 -91 39 -47 0 -56 -4 -91 -39z"/>
<path d="M27664 27031 c-34 -15 -45 -28 -59 -66 -18 -45 -18 -48 1 -93 17 -39
27 -49 67 -66 47 -20 47 -20 94 0 40 17 50 27 67 66 19 45 19 48 1 93 -14 38
-25 51 -59 66 -22 10 -48 19 -56 19 -8 0 -34 -9 -56 -19z"/>
<path d="M28158 27024 c-77 -41 -75 -169 2 -209 60 -31 137 -10 165 45 57 110
-58 223 -167 164z"/>
<path d="M26905 26791 c-50 -30 -68 -58 -72 -108 -5 -57 19 -102 69 -133 64
-39 146 -16 188 52 70 116 -71 260 -185 189z"/>
<path d="M27398 26784 c-78 -42 -77 -188 2 -229 64 -33 156 -11 185 45 33 64
11 156 -45 185 -37 19 -107 19 -142 -1z"/>
<path d="M27910 26783 c-95 -49 -87 -193 13 -232 48 -18 103 -7 138 28 52 53
46 150 -12 193 -37 28 -97 33 -139 11z"/>
<path d="M28379 26749 c-41 -44 -41 -115 -1 -159 30 -34 110 -57 100 -29 -3 8
-13 60 -23 117 -20 114 -28 122 -76 71z"/>
<path d="M26682 26561 c-10 -6 -15 -44 -17 -140 -4 -131 -4 -132 20 -143 59
-27 156 30 175 103 14 51 -1 106 -37 141 -44 42 -109 60 -141 39z"/>
<path d="M27143 26540 c-87 -52 -83 -198 6 -245 66 -34 155 -11 191 48 41 66
15 168 -50 202 -41 21 -109 19 -147 -5z"/>
<path d="M27676 26550 c-67 -21 -106 -95 -86 -168 34 -129 226 -130 260 -1 21
76 -18 148 -91 169 -39 11 -44 11 -83 0z"/>
<path d="M28153 26530 c-85 -51 -81 -179 6 -225 61 -31 136 -11 171 48 70 114
-63 247 -177 177z"/>
<path d="M26902 26304 c-95 -48 -109 -187 -26 -250 45 -35 109 -42 158 -19
100 48 114 192 24 258 -36 27 -114 32 -156 11z"/>
<path d="M27393 26290 c-87 -52 -83 -198 6 -245 98 -50 211 16 211 123 0 85
-56 142 -140 142 -27 0 -58 -8 -77 -20z"/>
<path d="M27911 26293 c-124 -65 -93 -242 45 -259 73 -9 141 46 150 122 13
104 -103 186 -195 137z"/>
<path d="M28402 26286 c-37 -20 -62 -66 -62 -114 0 -81 51 -132 133 -132 62 0
78 18 71 78 -11 93 -24 155 -35 168 -14 17 -76 17 -107 0z"/>
<path d="M26676 26067 c-15 -11 -18 -30 -19 -120 -2 -76 -6 -107 -14 -109 -21
-5 23 -67 53 -74 36 -9 102 13 135 45 36 37 53 99 40 149 -15 53 -38 82 -85
103 -48 22 -85 24 -110 6z"/>
<path d="M27142 26050 c-45 -28 -72 -76 -72 -130 0 -54 27 -102 72 -130 69
-42 166 -17 208 52 42 69 17 166 -52 208 -20 12 -51 20 -78 20 -27 0 -58 -8
-78 -20z"/>
<path d="M27676 26060 c-106 -32 -136 -174 -52 -248 59 -52 141 -50 198 5 79
76 44 213 -63 243 -39 11 -44 11 -83 0z"/>
<path d="M28155 26044 c-50 -25 -70 -61 -70 -126 0 -53 3 -61 37 -94 89 -89
238 -29 238 96 0 104 -112 171 -205 124z"/>
<path d="M26905 25816 c-101 -44 -125 -178 -46 -257 112 -113 296 -12 267 146
-18 94 -131 151 -221 111z"/>
<path d="M27386 25801 c-46 -31 -66 -70 -66 -130 0 -95 56 -151 150 -151 94 0
150 56 150 151 0 94 -55 149 -150 149 -37 0 -64 -6 -84 -19z"/>
<path d="M27902 25800 c-33 -15 -47 -29 -62 -62 -11 -24 -20 -54 -20 -68 0
-14 9 -44 20 -68 15 -33 29 -47 62 -62 24 -11 54 -20 68 -20 14 0 44 9 68 20
33 15 47 29 62 62 11 24 20 54 20 68 0 14 -9 44 -20 68 -15 33 -29 47 -62 62
-24 11 -54 20 -68 20 -14 0 -44 -9 -68 -20z"/>
<path d="M28393 25790 c-87 -52 -83 -198 6 -245 59 -30 141 -15 185 34 16 17
18 31 14 85 -6 71 -29 119 -65 135 -38 17 -105 13 -140 -9z"/>
<path d="M26668 25578 c-33 -12 -38 -32 -41 -183 l-2 -110 38 -19 c115 -56
251 66 217 194 -26 95 -125 151 -212 118z"/>
<path d="M27139 25558 c-75 -43 -103 -150 -56 -219 35 -52 82 -79 137 -79 55
0 102 27 137 79 66 98 -15 241 -136 241 -28 0 -60 -9 -82 -22z"/>
<path d="M27665 25565 c-140 -50 -131 -256 13 -295 144 -38 254 124 167 248
-35 48 -117 70 -180 47z"/>
<path d="M28142 25550 c-45 -28 -72 -76 -72 -130 0 -54 27 -102 72 -130 69
-42 166 -17 208 52 42 69 17 166 -52 208 -20 12 -51 20 -78 20 -27 0 -58 -8
-78 -20z"/>
<path d="M28586 25468 c-9 -21 -16 -45 -16 -55 0 -21 36 -83 48 -83 10 0 4 99
-8 145 l-8 30 -16 -37z"/>
<path d="M27382 25310 c-48 -30 -72 -75 -72 -140 0 -37 6 -66 20 -88 30 -48
75 -72 140 -72 65 0 110 24 140 72 14 22 20 51 20 88 0 65 -24 110 -72 140
-22 14 -51 20 -88 20 -37 0 -66 -6 -88 -20z"/>
<path d="M27922 25322 c-43 -13 -91 -61 -102 -103 -17 -63 -4 -115 40 -159 66
-66 152 -66 219 -2 63 61 67 145 10 215 -40 48 -103 67 -167 49z"/>
<path d="M28405 25311 c-11 -5 -33 -23 -50 -41 -27 -29 -30 -37 -30 -100 0
-67 1 -71 38 -107 36 -37 40 -38 107 -38 67 0 71 1 107 38 37 36 38 40 38 107
0 67 -1 71 -37 107 -33 33 -43 37 -95 40 -32 1 -67 -1 -78 -6z"/>
<path d="M26610 25183 c0 -27 -3 -58 -6 -70 -5 -17 -2 -23 9 -23 18 0 27 30
27 93 0 35 -4 47 -15 47 -11 0 -15 -12 -15 -47z"/>
<path d="M27665 25075 c-114 -41 -147 -185 -61 -271 145 -145 372 59 245 220
-42 53 -119 75 -184 51z"/>
<path d="M28139 25057 c-52 -35 -79 -82 -79 -137 0 -55 27 -102 79 -137 70
-47 165 -23 218 56 47 70 23 165 -56 218 -23 16 -49 23 -81 23 -32 0 -58 -7
-81 -23z"/>
<path d="M28610 25030 c-40 -43 -54 -97 -40 -152 11 -39 60 -98 82 -98 9 0 1
269 -8 279 -2 2 -17 -11 -34 -29z"/>
<path d="M27916 24830 c-42 -13 -95 -68 -107 -113 -16 -58 -2 -113 38 -158 64
-71 163 -76 234 -12 71 64 76 163 12 234 -47 52 -108 69 -177 49z"/>
<path d="M28392 24814 c-99 -51 -111 -211 -19 -276 41 -30 123 -36 171 -13
103 49 117 211 23 277 -41 29 -129 35 -175 12z"/>
<path d="M28607 24537 c-75 -71 -67 -197 16 -247 18 -11 35 -20 40 -20 4 0 7
68 7 150 0 169 -3 174 -63 117z"/>
<path d="M20975 22642 c-29 -48 -77 -77 -214 -127 -155 -56 -235 -101 -316
-177 -71 -65 -113 -140 -140 -243 -25 -95 -30 -291 -11 -425 26 -187 18 -310
-25 -365 -41 -52 -102 -26 -239 102 -52 48 -118 105 -146 125 -77 56 -199 114
-289 137 -105 26 -294 45 -370 36 -33 -4 -128 -7 -210 -6 -181 2 -265 -16
-392 -84 -115 -61 -204 -134 -278 -227 -149 -188 -176 -342 -70 -393 70 -32
112 -3 181 127 103 196 292 327 584 405 135 36 231 36 335 -1 186 -65 360
-171 523 -319 128 -117 206 -160 303 -165 172 -10 291 99 335 308 23 109 14
310 -21 455 -35 144 -37 242 -6 311 29 65 71 106 201 192 124 82 207 167 256
264 37 74 45 130 9 70z"/>
<path d="M22730 21150 c-152 -15 -314 -71 -442 -152 -81 -53 -192 -151 -239
-213 -46 -61 -123 -230 -115 -252 14 -35 38 -23 128 62 135 127 238 201 363
261 145 70 257 97 400 97 68 0 136 -6 177 -16 272 -66 514 -298 573 -549 19
-83 19 -225 -1 -307 -21 -88 -92 -233 -148 -302 -81 -100 -202 -178 -336 -215
-100 -28 -317 -24 -554 9 -301 43 -429 34 -618 -44 -219 -90 -359 -250 -399
-453 -5 -28 -14 -143 -19 -256 -8 -195 -10 -211 -45 -325 -46 -149 -81 -213
-161 -291 -81 -81 -156 -116 -324 -154 -180 -41 -291 -75 -323 -101 -27 -20
-27 -20 -27 0 0 29 -48 178 -75 231 -30 59 -112 167 -136 181 -15 8 -12 -3 15
-53 43 -80 60 -154 53 -232 -12 -135 -77 -271 -184 -386 -102 -109 -222 -160
-373 -161 -104 0 -143 8 -336 71 -181 59 -274 80 -357 80 -251 -1 -460 -171
-512 -415 -28 -135 -10 -268 56 -405 35 -74 54 -98 142 -182 56 -53 103 -95
105 -93 2 2 -5 19 -16 37 -29 46 -108 283 -128 380 -34 169 26 346 141 414
105 61 222 52 498 -41 205 -68 283 -85 404 -85 321 0 619 200 687 463 11 42
17 51 32 49 66 -12 110 -13 238 -3 252 19 433 88 569 215 21 20 40 36 42 36
13 0 25 -123 25 -249 0 -120 -4 -161 -20 -212 -47 -153 -170 -277 -322 -328
-35 -11 -128 -32 -208 -45 -162 -28 -356 -84 -443 -128 -121 -60 -172 -126
-268 -346 -38 -85 -92 -192 -121 -239 -73 -116 -205 -242 -355 -339 -65 -42
-161 -105 -213 -140 -133 -88 -212 -108 -400 -101 -167 6 -220 22 -323 94 -91
64 -105 83 -116 152 -13 81 -58 114 -118 84 -45 -22 -67 -61 -71 -125 -11
-145 123 -275 324 -314 43 -9 125 -27 181 -40 158 -39 290 -33 490 21 202 54
334 122 514 265 202 162 307 306 429 593 91 213 147 316 184 341 31 20 73 20
151 1 146 -35 376 1 545 85 220 110 377 344 405 602 15 136 -35 272 -140 386
l-61 66 42 70 c106 178 111 278 26 561 -30 102 -36 135 -36 220 -1 90 2 106
28 163 49 106 150 177 299 209 103 22 396 12 642 -20 105 -14 231 -28 280 -32
389 -26 718 159 889 502 227 455 24 1004 -461 1247 -152 77 -357 114 -533 96z"/>
<path d="M25663 20661 c-90 -65 -143 -166 -163 -310 -8 -61 -8 -139 0 -305 13
-247 7 -318 -34 -438 -13 -37 -40 -90 -60 -118 -20 -27 -32 -50 -27 -50 16 0
158 118 202 168 58 67 114 165 139 247 19 64 21 89 18 280 -3 185 -1 215 15
250 17 37 74 132 119 198 25 37 20 78 -12 94 -14 7 -55 13 -91 13 -57 0 -71
-4 -106 -29z"/>
<path d="M22237 20244 c-73 -16 -305 -94 -457 -154 -154 -61 -239 -72 -315
-44 -17 7 -18 6 -7 -8 19 -23 145 -74 220 -89 112 -21 207 -8 393 55 91 30
199 63 240 71 76 17 311 22 362 10 17 -5 33 -2 42 5 54 45 -53 120 -219 155
-91 18 -169 18 -259 -1z"/>
<path d="M18004 19275 c-27 -13 -89 -60 -139 -105 -106 -95 -183 -137 -401
-220 -195 -74 -300 -126 -386 -190 -85 -65 -180 -167 -238 -257 l-47 -73 -17
38 c-139 291 -696 634 -1191 732 -220 44 -486 38 -686 -16 -198 -53 -328 -126
-524 -294 -205 -175 -347 -253 -530 -287 -84 -16 -199 -13 -265 6 -63 19 -128
68 -166 126 -60 91 -57 187 8 277 21 29 -2 43 -45 29 -110 -37 -168 -127 -175
-273 -5 -102 9 -155 63 -227 122 -167 415 -229 705 -150 228 62 387 159 625
379 134 124 224 189 317 227 392 162 886 77 1363 -235 219 -142 315 -301 315
-517 -1 -116 -18 -148 -156 -282 -135 -132 -167 -186 -166 -287 0 -86 21 -135
108 -250 84 -111 107 -156 123 -242 37 -197 -116 -404 -328 -444 -29 -5 -65
-7 -80 -4 -22 6 -24 4 -13 -7 9 -10 42 -14 121 -14 104 0 109 1 187 39 177 88
264 242 264 468 0 147 -34 260 -120 395 -16 26 -30 53 -30 61 0 8 56 72 125
142 139 142 175 200 199 328 11 59 22 83 65 140 28 38 87 104 131 146 133 127
234 184 490 276 186 67 328 135 412 199 82 62 223 220 250 279 11 24 26 46 34
49 23 9 -79 63 -119 63 -18 0 -55 -11 -83 -25z"/>
<path d="M23850 12484 c-79 -13 -230 -77 -230 -97 0 -5 7 -7 15 -3 8 3 72 13
142 22 110 15 146 16 264 6 76 -7 145 -9 153 -6 26 10 14 27 -39 54 -44 22
-64 25 -165 27 -63 1 -126 -1 -140 -3z"/>
<path d="M24246 12160 c-78 -24 -250 -41 -386 -39 -124 2 -145 0 -148 -13 -9
-45 254 -76 378 -44 67 17 190 80 190 96 0 6 -1 10 -2 9 -2 0 -16 -5 -32 -9z"/>
</g>
</svg>
